<?xml version="1.0" standalone="no"?>
<!DOCTYPE svg PUBLIC "-//W3C//DTD SVG 20010904//EN"
 "http://www.w3.org/TR/2001/REC-SVG-20010904/DTD/svg10.dtd">
<svg version="1.0" xmlns="http://www.w3.org/2000/svg"
 width="700.000000pt" height="700.000000pt" viewBox="0 0 700.000000 700.000000"
 preserveAspectRatio="xMidYMid meet">
<metadata>
Created by potrace 1.14, written by Peter Selinger 2001-2017
</metadata>
<g transform="translate(0.000000,700.000000) scale(0.100000,-0.100000)"
fill="#000000" stroke="none">
<path d="M5115 5934 c-139 -20 -328 -117 -421 -216 -52 -55 -102 -142 -129
-224 -21 -64 -25 -96 -25 -193 0 -64 6 -147 14 -186 29 -144 29 -135 -2 -135
-93 0 -127 -118 -77 -267 27 -84 48 -117 119 -190 43 -46 55 -53 89 -53 36 0
39 -3 59 -47 56 -133 107 -222 147 -257 11 -11 21 -22 21 -26 0 -7 -118 -80
-130 -80 -12 0 -44 -40 -37 -46 4 -4 -13 -28 -37 -55 -24 -27 -46 -59 -49 -71
-50 -193 -70 -292 -87 -428 -14 -117 -16 -125 -42 -137 -22 -9 -84 -4 -314 26
-44 6 -99 11 -122 11 -37 0 -42 3 -48 28 -19 83 -28 105 -72 163 -27 35 -55
80 -62 99 -25 66 -47 76 -87 38 l-23 -21 -49 46 c-28 26 -59 47 -70 47 -15 0
-22 9 -27 36 -7 37 -48 84 -74 84 -9 0 -21 5 -27 11 -6 6 -19 9 -29 6 -15 -3
-11 -7 16 -20 20 -8 48 -28 63 -43 25 -25 27 -33 27 -113 1 -47 5 -216 9 -376
5 -165 5 -297 0 -307 -11 -20 -78 -53 -155 -75 -45 -13 -100 -17 -229 -17
-190 -1 -262 14 -317 63 l-30 27 -9 289 c-4 160 -11 323 -14 363 -5 47 -3 83
5 101 22 54 128 95 274 107 50 4 100 11 111 15 22 10 -104 5 -222 -9 -81 -10
-158 -49 -180 -92 -9 -18 -12 -64 -8 -165 3 -77 7 -221 10 -320 6 -232 14
-306 34 -329 21 -24 82 -50 156 -67 116 -27 379 -15 470 21 11 4 35 14 54 21
19 7 47 25 63 41 26 25 28 33 23 71 -8 53 11 77 48 59 47 -22 143 -33 192 -21
45 11 49 10 138 -34 51 -25 124 -57 162 -72 39 -15 79 -31 90 -35 11 -5 43
-16 70 -26 70 -24 82 -36 62 -64 -10 -14 -13 -34 -10 -55 6 -37 -18 -119 -52
-180 -12 -22 -41 -76 -65 -120 -24 -44 -54 -100 -68 -125 -14 -25 -38 -70 -55
-100 -17 -30 -54 -95 -82 -145 -29 -49 -63 -108 -76 -130 -30 -52 -33 -170 -6
-227 20 -42 83 -108 124 -129 15 -7 53 -29 83 -48 60 -38 159 -96 203 -119 33
-17 44 -39 28 -55 -6 -6 -11 -21 -11 -34 0 -13 -4 -31 -10 -41 -8 -15 -31
-100 -60 -222 -21 -85 -32 -112 -95 -238 l-68 -133 23 -24 c13 -14 29 -25 37
-25 18 0 17 -1 -16 -73 -41 -89 -49 -96 -137 -131 -71 -28 -81 -35 -98 -71
-11 -22 -23 -48 -28 -57 -4 -10 -8 -38 -8 -62 0 -57 -10 -53 249 -90 62 -9
123 -19 136 -22 41 -10 108 15 146 56 34 37 38 39 70 30 29 -9 42 -6 98 22 91
47 95 55 86 187 -6 92 -5 113 9 133 10 14 16 43 16 80 0 36 7 75 19 101 11 23
22 70 25 103 3 34 10 73 15 85 22 55 51 138 67 192 9 31 21 57 25 57 19 0 97
-36 144 -66 45 -28 75 -66 75 -95 0 -5 9 -29 21 -53 15 -32 31 -49 57 -61 20
-9 46 -21 58 -26 11 -6 40 -9 64 -7 49 3 44 -7 71 138 5 30 15 76 20 102 6 26
11 90 12 143 l2 96 -42 40 c-40 38 -42 43 -37 82 5 34 1 52 -21 92 -49 88 -58
95 -142 95 -40 0 -73 2 -73 5 0 3 17 36 38 73 20 37 49 89 62 115 14 27 45 65
70 85 25 20 67 60 94 89 48 52 50 53 107 53 33 0 59 4 59 8 0 5 25 40 55 78
31 38 78 113 104 166 l48 98 6 -68 c3 -37 11 -116 17 -175 l12 -109 -66 -67
c-69 -72 -71 -78 -82 -186 -3 -38 -12 -82 -20 -97 -29 -56 -4 -96 51 -82 30 8
31 0 5 -62 -12 -26 -20 -62 -18 -78 3 -29 6 -31 58 -38 55 -7 127 9 157 34 7
6 28 18 45 27 43 21 99 108 133 204 24 68 27 88 22 150 -3 40 -13 100 -22 135
-16 60 -16 66 3 145 23 91 72 343 72 368 0 9 8 24 19 33 19 17 32 80 35 166 3
61 -23 557 -33 650 -25 224 -45 294 -101 350 -77 77 -115 107 -156 121 -55 19
-61 24 -68 68 -7 47 -57 95 -113 111 -67 18 -69 22 -29 75 32 42 54 83 81 150
4 11 18 67 30 125 l21 105 48 26 c42 22 54 35 86 100 51 101 60 133 60 220 0
90 -18 144 -59 181 -33 30 -60 35 -91 18 -25 -14 -28 -2 -34 175 -4 117 -9
151 -29 206 -67 180 -154 278 -312 354 -111 53 -153 64 -275 69 -58 2 -118 2
-135 0z m259 -63 c156 -35 320 -160 384 -293 51 -106 77 -267 66 -406 -6 -70
-7 -72 -25 -57 -12 12 -27 15 -48 10 -31 -7 -34 -25 -5 -25 37 0 47 -28 47
-133 l-1 -102 -35 -30 c-45 -39 -100 -55 -189 -55 -85 0 -133 15 -170 52 -39
39 -38 66 2 60 17 -2 33 -8 36 -13 7 -12 141 -11 149 1 3 6 13 10 22 10 24 0
73 40 73 59 0 9 -10 28 -21 40 -21 23 -25 23 -138 16 -66 -4 -128 -13 -143
-21 -27 -14 -28 -14 -28 14 0 62 56 86 265 112 106 14 125 18 125 31 0 11
-167 12 -174 0 -3 -4 -36 -11 -73 -14 -80 -7 -130 -26 -160 -61 -18 -20 -33
-26 -65 -27 -33 0 -38 -2 -23 -9 13 -5 1 -7 -35 -5 -30 2 -68 10 -85 18 -39
19 -287 31 -303 15 -6 -6 -19 -12 -29 -13 -43 -6 -83 -18 -83 -26 0 -5 -6 -9
-14 -9 -8 0 -20 -13 -27 -29 -10 -23 -16 -27 -26 -19 -7 6 -13 21 -13 34 0 13
-4 33 -9 46 -23 59 -33 138 -33 263 0 88 4 141 11 148 6 6 11 17 11 25 0 15
48 119 64 140 100 128 217 207 372 251 77 22 236 23 328 2z m581 -787 c31 -12
45 -59 45 -153 0 -100 -19 -165 -68 -236 -31 -45 -72 -60 -72 -27 0 32 11 52
29 52 12 0 13 2 3 9 -11 6 -12 25 -8 77 13 143 16 156 31 144 8 -6 16 -21 18
-33 3 -20 4 -20 12 -4 5 12 1 30 -10 51 -14 26 -15 37 -6 54 19 37 12 38 -19
3 l-30 -34 0 27 c0 14 10 37 22 51 23 27 28 28 53 19z m-844 -75 c36 -25 41
-64 7 -55 -13 3 -75 -2 -138 -11 -86 -12 -121 -22 -138 -37 -26 -23 -27 -65
-2 -76 8 -4 25 -12 37 -18 47 -25 120 -12 211 36 23 12 45 22 47 22 3 0 5 -13
5 -29 0 -35 -44 -81 -109 -112 -38 -19 -64 -23 -147 -23 -112 -1 -129 6 -159
66 -20 42 -39 142 -31 173 8 30 59 65 96 65 14 0 32 5 40 10 8 5 68 10 133 10
104 0 122 -3 148 -21z m183 -15 c11 -4 16 -19 16 -44 0 -22 5 -42 10 -45 6 -3
10 -13 10 -22 0 -26 54 -163 63 -163 5 0 6 7 3 15 -3 8 -9 22 -12 30 -3 8 -1
15 5 15 7 0 28 -7 48 -15 50 -21 213 -20 273 2 65 24 110 69 110 110 0 18 5
33 11 33 12 0 11 -10 -10 -245 -11 -115 -32 -228 -56 -299 -36 -104 -155 -256
-191 -242 -8 3 -14 0 -14 -7 0 -15 -65 -80 -95 -95 -11 -5 -62 -16 -113 -23
-103 -14 -142 -7 -195 37 -16 13 -36 24 -46 24 -29 0 -142 78 -193 133 -26 28
-67 91 -92 141 -52 105 -149 389 -143 420 3 20 4 20 14 -4 42 -98 218 -117
377 -41 79 39 108 97 110 219 1 35 6 56 16 62 17 11 70 13 94 4z m344 -26 c20
-20 14 -37 -20 -58 -53 -32 -198 -25 -245 12 -10 8 -9 13 2 24 20 20 58 17 89
-7 31 -25 75 -19 83 11 7 28 69 40 91 18z m-1052 -64 c13 -14 24 -29 24 -34 0
-19 -18 -19 -35 0 -10 11 -25 20 -33 20 -12 0 -10 -6 7 -24 20 -22 23 -31 16
-73 -6 -45 -5 -47 9 -28 8 11 16 26 16 34 0 23 27 -6 33 -37 14 -69 20 -89 33
-119 17 -38 18 -50 2 -56 -7 -3 -3 -6 8 -6 20 -1 33 -24 34 -58 0 -29 -38 -9
-90 46 -60 63 -95 134 -110 228 -18 109 30 168 86 107z m537 1 c12 -29 -111
-85 -188 -85 -58 0 -104 32 -84 57 20 24 67 26 91 4 30 -29 56 -26 87 9 29 32
84 42 94 15z m-443 -107 c0 -16 -3 -19 -11 -11 -6 6 -8 16 -5 22 11 17 16 13
16 -11z m254 -749 c-3 -6 -10 -39 -15 -74 -8 -56 -6 -70 11 -102 21 -42 50
-139 57 -193 l5 -35 -21 33 c-12 18 -21 37 -21 42 0 6 -4 10 -8 10 -5 0 -17
18 -27 40 -10 21 -25 47 -34 58 -9 10 -21 27 -27 38 -54 97 -64 117 -64 134 0
11 6 20 14 20 8 0 16 5 18 12 10 30 68 -37 68 -79 0 -7 5 -13 10 -13 6 0 10 9
10 20 0 11 -4 20 -10 20 -5 0 -7 7 -4 15 4 8 1 22 -6 30 -10 12 -9 15 5 15 10
0 15 5 12 14 -4 10 0 12 14 9 10 -3 16 -9 13 -14z m626 -45 c0 -8 6 -14 14
-14 7 0 19 -6 25 -14 9 -11 5 -16 -21 -26 -18 -6 -42 -16 -53 -20 -11 -5 -42
-17 -70 -26 -70 -26 -172 -76 -238 -118 -64 -41 -67 -42 -67 -18 0 9 -17 53
-39 97 -56 117 -57 122 -23 129 19 5 46 -1 87 -20 59 -27 60 -28 172 -16 110
11 157 25 182 56 15 18 31 12 31 -10z m150 -25 c0 -14 -61 -66 -100 -85 -19
-9 -37 -20 -40 -23 -3 -3 -19 -14 -37 -24 -33 -18 -58 -15 -67 8 -5 14 -1 16
115 59 64 24 109 54 109 74 0 7 5 10 10 7 6 -3 10 -10 10 -16z m-682 -14 c7
-14 12 -31 12 -38 0 -12 -50 -40 -57 -33 -6 6 19 96 27 96 4 0 12 -11 18 -25z
m-248 -54 c0 -6 -4 -13 -10 -16 -5 -3 -10 -17 -10 -31 0 -13 -4 -24 -9 -24 -9
0 -14 -21 -32 -160 -6 -47 -15 -93 -20 -102 -5 -10 -9 -31 -9 -47 0 -17 -4
-33 -10 -36 -5 -3 -10 -42 -10 -86 0 -78 0 -79 -26 -79 l-26 0 7 108 c4 59 11
112 15 117 4 6 10 30 13 55 3 25 10 65 17 90 6 25 16 71 22 103 6 31 15 57 19
57 5 0 9 7 9 15 0 9 6 22 13 30 14 16 47 20 47 6z m1090 -26 c-6 -7 -20 -15
-32 -18 -21 -6 -21 -5 3 17 25 24 49 25 29 1z m-122 -13 c-13 -16 -32 -33 -43
-39 -102 -51 -223 -118 -246 -133 -15 -11 -32 -20 -38 -20 -6 0 -11 -4 -11 -9
0 -5 -8 -12 -18 -15 -10 -4 -27 -14 -38 -24 -37 -33 -54 -44 -54 -36 1 12 71
88 90 97 8 4 33 18 55 32 22 13 81 45 130 71 132 67 170 88 173 97 2 4 8 7 14
7 5 0 -1 -13 -14 -28z m169 22 c-3 -3 -12 -4 -19 -1 -8 3 -5 6 6 6 11 1 17 -2
13 -5z m129 -96 c38 -40 51 -73 65 -163 48 -298 69 -723 41 -792 l-14 -32 -66
5 c-93 6 -126 12 -179 35 l-45 19 6 43 c3 23 1 67 -5 97 -25 131 -31 169 -36
230 -2 36 -9 69 -14 74 -12 14 -12 303 1 311 6 3 10 18 10 32 0 44 23 96 60
135 32 33 40 37 91 37 50 1 58 -2 85 -31z m-1163 -63 c46 -69 57 -93 57 -126
l0 -42 -36 6 c-19 3 -57 16 -85 28 -38 17 -49 28 -49 45 0 13 5 26 10 29 6 3
10 24 10 45 0 21 5 42 10 45 6 3 10 17 10 31 0 13 4 24 8 24 5 0 34 -38 65
-85z m158 43 c13 -18 26 -35 30 -38 3 -3 17 -25 31 -50 21 -38 23 -48 12 -58
-16 -14 -19 -52 -5 -52 5 0 11 10 13 22 2 12 9 23 16 26 9 3 12 -13 12 -56 0
-53 -2 -60 -22 -65 -13 -4 -26 -1 -30 6 -4 7 -8 -3 -8 -24 0 -26 6 -41 21 -51
19 -12 21 -20 15 -61 -7 -43 -9 -47 -36 -47 -15 0 -31 6 -33 13 -3 6 -6 0 -6
-15 -1 -16 8 -36 20 -47 18 -17 20 -26 14 -69 -6 -45 -8 -49 -30 -44 -13 2
-26 12 -28 21 -3 11 -5 9 -6 -6 0 -12 -5 -25 -11 -28 -5 -3 -9 -23 -9 -43 l2
-37 6 40 c5 33 7 36 13 18 3 -13 13 -23 22 -23 20 0 20 -1 -1 -66 -16 -51 -17
-52 -50 -47 -41 7 -45 -16 -8 -52 13 -14 20 -25 15 -25 -6 0 -10 -6 -10 -14 0
-23 -36 -29 -64 -10 -34 22 -60 12 -52 -20 5 -20 3 -23 -14 -19 -11 3 -20 9
-20 14 0 9 21 50 30 59 12 12 90 188 110 250 36 111 72 452 52 494 -6 11 -13
35 -16 51 -3 17 -8 42 -12 58 -9 37 9 35 37 -5z m389 7 c0 -8 -4 -15 -10 -15
-18 0 -150 -125 -150 -142 0 -5 -9 -19 -20 -31 -11 -11 -23 -38 -26 -59 -4
-21 -10 -38 -14 -38 -4 0 -10 -17 -13 -37 -3 -21 -10 -58 -16 -83 -6 -25 -18
-81 -27 -125 -25 -131 -26 -135 -35 -141 -5 -3 -9 -15 -10 -27 0 -12 -9 -40
-19 -62 -14 -31 -19 -35 -19 -18 -1 12 3 32 8 45 18 45 67 251 117 481 9 42
13 84 10 92 -3 8 -1 15 3 15 13 0 23 33 12 39 -5 4 -13 19 -17 35 -7 28 -6 29
24 23 20 -4 34 -1 41 7 7 8 31 17 55 20 24 4 52 13 62 21 25 19 44 19 44 0z
m-1708 -79 c56 -48 98 -155 98 -251 0 -107 -31 -194 -89 -249 -60 -57 -88 10
-31 74 49 55 60 122 40 233 -12 64 -29 100 -59 128 -28 27 -31 100 -3 92 10
-2 30 -14 44 -27z m1950 2 c-7 -7 -12 -25 -12 -40 0 -15 -4 -28 -10 -28 -6 0
-10 -28 -10 -63 0 -70 25 -137 65 -172 15 -13 24 -36 28 -65 3 -25 10 -88 16
-140 6 -52 16 -112 23 -133 13 -43 8 -53 -20 -38 -12 6 -31 11 -44 11 -13 0
-28 4 -34 10 -6 6 -21 6 -42 -2 -26 -10 -37 -10 -52 0 -11 6 -37 12 -57 11
l-38 -1 45 -13 c79 -23 139 -35 178 -35 64 0 76 -16 74 -98 -1 -39 -7 -83 -12
-97 -13 -34 -13 -102 0 -110 18 -11 11 -58 -12 -82 -19 -21 -30 -23 -110 -23
-52 0 -88 4 -88 10 0 6 -11 10 -25 10 -29 0 -32 15 -10 67 8 19 15 44 15 54 0
11 5 28 12 38 6 10 8 27 4 37 -6 15 -11 9 -23 -31 -8 -27 -19 -59 -23 -70 -4
-11 -16 -48 -26 -82 -11 -35 -22 -63 -26 -63 -5 0 -8 -8 -8 -17 0 -9 -7 -25
-17 -35 -14 -16 -14 -18 -1 -18 9 0 26 22 39 50 13 27 29 51 35 54 12 4 146
-29 174 -43 8 -5 16 -24 18 -44 8 -87 -122 -247 -201 -247 -23 0 -28 4 -23 16
5 13 2 15 -16 10 -57 -16 -78 -18 -78 -7 0 6 -14 10 -32 10 -28 -2 -29 -2 -8
-6 14 -3 27 -8 30 -12 7 -9 95 -31 123 -31 13 0 32 -7 43 -15 17 -13 15 -14
-33 -15 -28 0 -55 5 -58 10 -3 6 -17 10 -31 10 -13 0 -32 4 -42 9 -9 5 -39 17
-67 26 -27 9 -60 21 -72 26 -46 19 -69 28 -115 46 -27 10 -48 21 -48 26 0 4
-6 7 -13 7 -8 0 -36 11 -63 25 -27 14 -58 25 -70 25 -28 0 -45 19 -34 39 21
39 40 85 40 97 0 7 3 14 8 16 10 4 42 75 42 93 0 7 4 15 8 17 11 4 82 154 82
173 0 8 5 15 10 15 6 0 10 9 10 19 0 11 5 23 10 26 6 3 10 14 10 23 0 9 7 30
15 46 8 15 15 37 15 47 0 10 4 20 9 23 5 3 11 18 14 33 2 16 12 55 21 87 9 33
19 86 23 118 3 32 10 61 14 64 5 3 9 16 9 30 0 38 23 104 37 104 7 0 23 12 36
26 l24 25 1 -32 c0 -19 -3 -38 -7 -44 -5 -5 -11 -28 -14 -50 -4 -22 -9 -57
-13 -77 -3 -21 -2 -38 3 -38 10 0 33 100 33 143 0 14 5 29 10 32 6 3 10 20 10
36 0 56 30 91 110 131 103 51 169 63 171 31 0 -14 2 -15 6 -3 9 23 24 40 36
40 7 0 7 -4 -1 -12z m64 -55 c-3 -21 -6 -74 -7 -118 -1 -78 -1 -79 -14 -45
-17 44 -18 85 -4 150 12 59 35 70 25 13z m-1848 -33 c13 -27 37 -64 53 -82 15
-18 33 -44 40 -58 6 -14 15 -33 20 -42 5 -10 9 -30 9 -45 0 -41 19 -103 32
-103 6 0 16 7 23 16 11 16 22 16 156 0 79 -9 167 -19 194 -22 74 -7 76 -10 58
-74 -15 -56 -28 -114 -39 -182 -8 -45 -19 -47 -95 -17 -30 12 -72 28 -94 36
-89 35 -224 103 -232 118 -9 15 -13 15 -54 1 -52 -18 -158 -21 -193 -5 l-25
12 25 29 c26 32 64 108 64 131 0 26 13 26 36 0 29 -34 41 -25 20 16 -11 20
-16 57 -16 115 0 67 -4 93 -20 121 -15 27 -17 41 -10 60 5 14 13 25 17 25 5 0
19 -23 31 -50z m-185 -76 c2 -14 0 -24 -7 -24 -21 0 -36 23 -36 54 0 28 1 28
19 12 10 -9 21 -28 24 -42z m1180 16 c48 -10 57 -15 52 -28 -4 -10 -11 -46
-16 -82 -4 -36 -13 -87 -19 -115 -6 -27 -12 -60 -13 -72 -2 -23 -17 -33 -17
-12 0 6 -8 8 -19 4 -13 -4 -27 1 -40 14 -12 12 -30 21 -41 21 -13 0 -22 10
-27 31 -10 38 0 183 16 232 11 33 14 35 39 27 15 -5 53 -14 85 -20z m98 -163
c-6 -16 -11 -42 -11 -58 0 -29 -25 -140 -39 -174 -5 -11 -17 -38 -26 -60 -34
-80 -124 -256 -136 -265 -4 -3 -19 -27 -34 -55 -16 -27 -31 -52 -34 -55 -6 -5
-14 -17 -49 -72 -9 -16 -20 -28 -24 -28 -11 0 2 30 39 88 18 29 33 57 33 62 0
6 3 10 8 10 4 0 16 17 27 38 10 20 27 48 36 62 28 42 69 122 69 136 0 7 4 14
8 16 10 3 62 136 62 156 0 7 4 20 9 30 13 25 29 105 41 200 5 46 13 89 17 95
12 19 15 -92 4 -126z m-1287 87 c9 -3 16 -17 16 -31 0 -24 -1 -25 -22 -11 -40
27 -35 58 6 42z m2 -90 c-3 -9 -6 -20 -6 -25 0 -6 -4 -7 -10 -4 -16 10 -12 45
6 45 11 0 14 -5 10 -16z m890 -129 c4 -8 0 -23 -7 -32 -12 -15 -12 -16 4 -10
12 5 17 1 17 -13 0 -10 -4 -21 -9 -24 -4 -3 -11 -23 -15 -44 -3 -24 -16 -48
-33 -64 -16 -14 -33 -34 -40 -44 -10 -16 -12 -11 -12 33 -1 28 4 55 9 58 6 3
10 15 10 26 0 26 49 129 61 129 5 0 12 -7 15 -15z m236 -17 c21 -7 40 -19 43
-27 8 -20 -44 -151 -62 -158 -10 -4 -13 -14 -9 -29 4 -13 3 -24 -1 -24 -5 0
-14 -13 -21 -29 -9 -21 -18 -28 -29 -24 -12 5 -14 1 -8 -16 5 -17 -8 -44 -53
-114 -32 -51 -64 -102 -70 -114 -8 -14 -18 -20 -31 -16 -21 5 -71 57 -71 73 0
5 -4 10 -10 10 -5 0 -10 8 -9 18 0 10 3 12 6 5 2 -7 9 -13 14 -13 13 0 11 34
-2 47 -23 23 38 148 91 190 21 17 24 16 59 -13 17 -14 31 -21 31 -15 0 5 -6
14 -12 18 -28 17 -39 54 -32 101 6 44 33 111 56 139 11 14 65 10 120 -9z m242
-295 c-6 -25 -24 -56 -24 -41 0 10 22 68 26 68 2 0 1 -12 -2 -27z m-61 -128
c-7 -34 -31 -54 -44 -34 -15 23 -10 35 19 46 15 6 28 11 28 12 1 1 -1 -10 -3
-24z m-518 5 c3 -5 1 -10 -4 -10 -6 0 -11 5 -11 10 0 6 2 10 4 10 3 0 8 -4 11
-10z m1562 -37 c102 6 126 0 98 -23 -20 -16 -19 -30 1 -30 11 0 14 -5 10 -16
-3 -9 -6 -18 -6 -20 0 -2 -49 -4 -108 -4 -128 0 -226 22 -196 44 16 12 16 15
1 36 -12 17 -13 27 -6 36 8 10 20 8 57 -8 41 -17 61 -19 149 -15z m-87 -144
c36 -4 88 -8 117 -9 l52 0 -5 -37 c-3 -21 -9 -54 -14 -73 -4 -19 -15 -75 -24
-125 -29 -156 -38 -185 -58 -185 -22 0 -24 -23 -2 -40 30 -26 46 -85 51 -187
6 -111 -8 -174 -55 -243 l-24 -35 7 30 c24 97 32 146 24 151 -11 6 -13 1 -37
-94 -18 -73 -70 -162 -94 -162 -9 0 -9 3 -2 8 21 15 47 87 52 147 7 89 -12 88
-27 -2 -16 -98 -69 -193 -108 -193 -18 0 -17 5 17 66 32 58 57 161 47 188 -12
30 -24 8 -31 -54 -9 -79 -71 -200 -102 -200 -19 0 -18 22 5 73 32 74 42 120
39 182 -2 47 -7 60 -20 63 -15 3 -17 -4 -17 -48 2 -55 -19 -90 -53 -90 -22 0
-22 -3 2 48 14 29 20 61 20 112 l0 70 85 91 c47 50 85 96 85 103 0 7 -5 17
-12 24 -14 14 -26 123 -34 311 l-6 134 28 -8 c16 -4 58 -11 94 -16z m-1277
-618 c-25 -53 -30 -58 -45 -47 -16 11 -13 17 24 71 50 70 60 59 21 -24z m598
-324 c8 -7 18 -19 22 -27 4 -8 16 -30 27 -47 19 -32 19 -33 0 -33 -10 0 -22
-4 -25 -10 -12 -20 -27 -10 -21 15 5 18 3 23 -8 19 -9 -4 -16 6 -20 30 -4 19
-12 37 -19 40 -9 3 -8 7 3 15 19 13 21 13 41 -2z m34 -147 c3 -5 1 -10 -4 -10
-6 0 -11 5 -11 10 0 6 2 10 4 10 3 0 8 -4 11 -10z m106 -132 c13 -24 6 -145
-10 -161 -5 -5 -7 -15 -4 -22 2 -8 -1 -24 -8 -37 -7 -13 -12 -33 -10 -45 1
-13 -1 -28 -6 -35 -4 -7 -8 -33 -8 -58 0 -32 -4 -45 -15 -47 -18 -4 -43 44
-28 53 6 4 7 24 3 50 -5 35 -3 44 9 44 11 0 13 8 9 34 -3 19 -1 36 6 40 6 4
11 27 11 52 0 28 4 43 10 39 6 -4 10 12 10 39 0 25 -4 46 -10 46 -5 0 -10 9
-10 20 0 11 -4 20 -10 20 -5 0 -10 5 -10 10 0 17 58 -18 71 -42z m-1254 -944
c-3 -3 -12 -4 -19 -1 -8 3 -5 6 6 6 11 1 17 -2 13 -5z m541 -66 c-23 -18 -77
-48 -86 -48 -2 0 -1 7 2 15 3 9 -1 18 -9 21 -22 9 -18 24 5 24 11 0 20 5 20
10 0 6 9 10 20 10 11 0 20 3 20 8 0 4 10 12 23 17 19 9 22 7 25 -14 3 -17 -4
-31 -20 -43z m-148 -22 c0 -3 -4 -8 -10 -11 -5 -3 -10 -1 -10 4 0 6 5 11 10
11 6 0 10 -2 10 -4z m-380 -27 c0 -6 15 -9 38 -7 26 2 36 -1 34 -10 -2 -10 8
-12 44 -6 40 6 46 4 41 -9 -5 -13 4 -15 57 -14 42 1 62 6 59 13 -2 6 7 14 21
16 14 3 26 1 26 -3 0 -5 -4 -9 -10 -9 -5 0 -10 -7 -10 -15 0 -27 -40 -38 -114
-30 -39 4 -83 7 -98 7 -14 -1 -32 5 -38 13 -8 9 -22 12 -41 8 -16 -3 -35 -1
-42 5 -7 6 -32 11 -55 10 -49 0 -55 3 -46 26 5 12 20 16 70 16 39 0 64 -4 64
-11z"/>
<path d="M5450 4615 c0 -22 -4 -25 -37 -25 -28 0 -42 -7 -65 -32 -33 -37 -84
-43 -117 -14 -15 14 -29 16 -60 11 -40 -7 -42 -5 -56 27 -13 31 -14 31 -15 8
0 -36 18 -50 64 -50 22 0 47 -7 57 -16 10 -9 35 -18 57 -21 35 -5 43 -1 75 31
21 21 46 36 60 36 13 0 31 8 40 18 19 20 23 52 7 52 -5 0 -10 -11 -10 -25z"/>
<path d="M5531 4433 c-84 -36 -211 -54 -363 -51 -81 1 -150 0 -153 -4 -4 -4
17 -30 46 -57 72 -68 125 -85 238 -78 117 7 189 35 241 94 22 25 40 51 40 58
0 7 7 18 15 25 37 31 -4 40 -64 13z m9 -40 c0 -17 -54 -74 -83 -87 -86 -39
-241 -50 -300 -20 -36 18 -67 43 -67 54 0 4 64 10 143 13 125 6 248 25 265 41
8 8 42 7 42 -1z"/>
<path d="M5338 4193 c6 -2 18 -2 25 0 6 3 1 5 -13 5 -14 0 -19 -2 -12 -5z"/>
<path d="M5073 3405 c0 -22 2 -30 4 -17 2 12 2 30 0 40 -3 9 -5 -1 -4 -23z"/>
<path d="M5031 3234 c0 -11 3 -14 6 -6 3 7 2 16 -1 19 -3 4 -6 -2 -5 -13z"/>
<path d="M4982 3050 c0 -14 2 -19 5 -12 2 6 2 18 0 25 -3 6 -5 1 -5 -13z"/>
<path d="M5220 3700 c0 -5 5 -10 10 -10 6 0 10 5 10 10 0 6 -4 10 -10 10 -5 0
-10 -4 -10 -10z"/>
<path d="M5616 3651 c-4 -7 -5 -15 -2 -18 9 -9 19 4 14 18 -4 11 -6 11 -12 0z"/>
<path d="M5470 3490 c0 -5 7 -10 15 -10 8 0 15 5 15 10 0 6 -7 10 -15 10 -8 0
-15 -4 -15 -10z"/>
<path d="M5280 3263 c0 -23 -4 -45 -10 -48 -5 -3 -10 -19 -10 -35 0 -16 -4
-31 -9 -34 -5 -3 -11 -20 -14 -38 -6 -42 -26 -116 -38 -145 -5 -13 -13 -33
-18 -45 -5 -13 -16 -39 -25 -60 -9 -20 -16 -43 -16 -52 0 -9 -7 -16 -16 -16
-9 0 -14 -7 -13 -17 3 -17 -15 -61 -61 -153 -36 -73 -65 -125 -74 -131 -5 -4
-6 -20 -2 -35 7 -28 8 -27 35 26 19 37 35 56 50 58 11 2 21 7 21 12 0 4 -9 6
-20 3 -26 -7 -25 -3 10 67 17 33 30 66 30 75 0 8 5 15 10 15 6 0 10 4 10 10 0
5 11 34 25 64 14 30 25 60 25 65 0 6 9 11 20 11 12 0 20 -7 20 -17 0 -9 3 -13
7 -10 3 4 -2 23 -13 43 -14 28 -16 38 -6 41 6 3 12 12 12 21 0 10 7 30 15 46
8 15 15 39 15 52 0 12 5 26 10 29 6 3 10 19 10 35 0 16 4 31 8 34 4 2 9 19 10
38 1 18 7 47 13 65 7 22 7 38 0 50 -8 15 -10 10 -11 -24z"/>
<path d="M5328 3103 c7 -3 16 -2 19 1 4 3 -2 6 -13 5 -11 0 -14 -3 -6 -6z"/>
<path d="M5385 3083 c17 -3 34 -9 40 -14 12 -11 55 -12 55 0 0 11 -52 22 -94
20 l-31 -2 30 -4z"/>
<path d="M5308 2683 c6 -2 18 -2 25 0 6 3 1 5 -13 5 -14 0 -19 -2 -12 -5z"/>
<path d="M5363 2683 c-22 -8 -14 -23 12 -23 14 0 25 -4 25 -10 0 -5 10 -10 23
-9 l22 0 -22 9 c-13 5 -23 16 -23 25 0 15 -14 18 -37 8z"/>
<path d="M5270 2316 c0 -2 9 -6 20 -9 11 -3 20 -1 20 4 0 5 -9 9 -20 9 -11 0
-20 -2 -20 -4z"/>
<path d="M6048 2713 c7 -3 16 -2 19 1 4 3 -2 6 -13 5 -11 0 -14 -3 -6 -6z"/>
<path d="M3400 3906 c0 -2 9 -6 20 -9 11 -3 20 -1 20 4 0 5 -9 9 -20 9 -11 0
-20 -2 -20 -4z"/>
<path d="M3544 3822 c5 -16 -3 -17 -89 -18 -74 -1 -95 2 -95 12 0 18 -5 18
-63 -3 -47 -17 -49 -17 -62 0 -12 16 -18 17 -57 7 -23 -6 -50 -14 -58 -17 -8
-3 -34 -5 -57 -4 -22 1 -50 -3 -62 -10 -25 -16 -39 -5 -21 16 19 23 3 31 -20
10 -32 -29 -23 -47 35 -74 64 -30 372 -25 498 7 64 17 102 70 61 86 -11 4 -14
1 -10 -12z"/>
<path d="M3388 3823 c7 -3 16 -2 19 1 4 3 -2 6 -13 5 -11 0 -14 -3 -6 -6z"/>
</g>
</svg>
