<svg width="2475" height="2586" xmlns="http://www.w3.org/2000/svg" xmlns:xlink="http://www.w3.org/1999/xlink" xml:space="preserve" overflow="hidden"><g transform="translate(-967 228)"><g><g><g><path d="M372.217 2140C353.364 2135.17 322.427 2119.22 307.683 2107.13 281.338 2085.14 260.552 2052.27 252.092 2018.91 247.983 2003.44 247.742 1957.52 247.742 1195.2 247.742 420.073 247.983 387.202 252.092 372.217 269.253 312.034 314.209 267.078 373.425 252.092 389.619 247.983 431.191 247.742 1237.5 247.742 2040.18 247.742 2085.62 247.983 2101.33 252.092 2161.27 267.319 2207.68 313.726 2222.91 373.425 2227.02 389.619 2227.26 429.741 2227.26 1196.41 2227.26 1958.73 2227.02 2003.44 2222.91 2019.16 2214.69 2051.3 2192.7 2086.11 2166.83 2107.62 2152.09 2119.7 2121.15 2135.41 2101.57 2140.25 2080.31 2145.56 392.761 2145.56 372.217 2140ZM1949.3 1971.54C1999.34 1953.9 2036.8 1916.43 2053.48 1867.85L2060.49 1847.79 2060.49 1237.5 2060.49 627.209 2053.72 607.632C2037.04 558.567 1999.34 521.104 1949.3 503.459L1929.97 496.692 1237.5 496.692 545.032 496.692 526.663 503.218C476.389 521.104 439.167 557.358 421.523 605.698L414.514 624.792 413.789 1230.25C413.064 1783.26 413.547 1837.16 417.173 1852.62 430.95 1911.84 477.356 1958.97 537.297 1974.68 554.216 1979.03 573.552 1979.27 1242.33 1978.79L1929.97 1978.31 1949.3 1971.54Z" transform="matrix(1 0 0 -1 967 2247)"/><path d="M618.025 1649.11 546.24 1577.09 736.458 1386.87 926.917 1196.41 736.458 1005.95 546.24 815.735 619.475 742.5 692.468 669.507 955.92 932.959 1219.37 1196.41 957.129 1458.65C812.834 1602.95 693.918 1720.9 692.468 1720.9 691.018 1720.9 657.664 1688.51 618.025 1649.11Z" transform="matrix(1 0 0 -1 967 2247)"/><path d="M1278.59 784.314 1278.59 681.592 1587.96 681.592 1897.34 681.592 1897.34 784.314 1897.34 887.036 1587.96 887.036 1278.59 887.036 1278.59 784.314Z" transform="matrix(1 0 0 -1 967 2247)"/></g></g></g><text font-family="DaddyTimeMono Nerd Font Mono,DaddyTimeMono Nerd Font Mono_MSFontService,sans-serif" font-weight="700" font-size="183" transform="matrix(1 0 0 1 1588.92 2199)">The Log Blog</text></g></svg>