<svg width="1484" height="1055" xmlns="http://www.w3.org/2000/svg" xmlns:xlink="http://www.w3.org/1999/xlink" xml:space="preserve" overflow="hidden"><defs><clipPath id="clip0"><path d="M1320 627 2804 627 2804 1607 2481.45 1607 2481.45 1384.79 1642.55 1384.79 1642.55 1607 1320 1607Z" fill-rule="evenodd" clip-rule="evenodd"/></clipPath></defs><g transform="translate(-1320 -627)"><g clip-path="url(#clip0)"><g><g><path d="M19.0481 0C8.55219 0 0 8.26064 0 18.2706L0 876.406C0 886.124 8.55219 894.482 18.8537 894.482L272.504 894.482 272.504 878.446 19.0481 878.446C17.5903 878.446 16.6185 877.474 16.6185 876.211L16.6185 18.1734C16.6185 16.8128 17.5903 16.0354 18.9509 16.0354L1465.05 16.0354C1466.51 16.0354 1467.38 16.8128 1467.38 18.2706L1467.38 876.406C1467.38 877.669 1466.41 878.544 1465.05 878.544L1198.76 878.544 1198.76 894.482 1465.05 894.482C1475.45 894.482 1484 886.124 1484 876.211L1484 18.1734C1484 8.26064 1475.45 0 1465.15 0L19.0481 0Z" transform="matrix(1 0 0 1.00037 1320 627.544)"/><path d="M703.904 733.253C672.611 729.852 660.365 728.005 641.415 723.827 597.682 714.108 561.432 697.101 529.847 671.347 449.768 606.234 403.508 480.867 390.291 294.273 387.181 248.985 386.404 216.72 388.056 213.222 390.485 208.363 397.094 200.879 402.439 196.7 441.896 165.213 538.497 147.914 696.907 143.832 769.212 142.083 861.148 145.97 920.819 153.356 977.866 160.451 1014.31 169.295 1041.33 182.512 1051.43 187.565 1053.96 189.314 1060.28 195.534 1071.16 206.224 1071.36 207.196 1072.62 242.96 1073.11 258.995 1073.59 272.115 1073.79 272.31 1073.79 272.31 1076.22 271.629 1079.03 270.56 1092.06 265.507 1115.38 257.926 1128.21 254.719 1151.34 248.888 1159.02 247.722 1178.55 247.722 1198.38 247.722 1206.15 249.18 1218.88 255.497 1237.64 264.729 1260.67 290.094 1271.56 313.418 1280.98 334.216 1284.19 348.016 1284 370.271 1284 388.736 1282.44 397.483 1276.71 414.781 1254.35 481.838 1178.84 554.143 1076.51 607.206 1031.03 630.53 980.976 648.509 944.143 654.437L933.938 655.992 925.969 662.503C886.318 694.574 829.952 719.065 774.751 727.908 749.192 731.99 716.441 734.322 703.807 733.059ZM1034.62 547.632C1067.66 539.857 1101.68 525.766 1126.46 509.439 1167.08 482.713 1194.49 450.448 1207.12 413.81 1211.59 400.787 1213.34 390.971 1213.34 378.435 1213.15 358.998 1208.48 345.392 1197.99 335.188 1187.59 324.886 1175.25 320.61 1158.34 321.776 1136.47 323.04 1113.63 332.175 1085.93 350.737 1066.01 363.954 1067.76 361.427 1065.14 380.087 1056.78 439.952 1041.33 493.792 1019.46 540.052L1014.12 551.714 1018.59 551.033C1021.11 550.645 1028.3 549.09 1034.52 547.632ZM770.864 472.12C784.275 452.003 796.617 434.218 798.27 432.955 803.906 428.096 812.264 428.484 817.706 433.538 819.261 435.19 831.798 453.169 845.404 473.578L870.186 510.702 870.38 389.222 870.38 267.256C870.186 267.256 863.188 268.034 854.636 269.2 828.688 273.087 808.668 274.545 775.334 275.031L743.263 275.614 743.555 344.615C743.944 436.939 744.818 510.41 745.693 509.439 746.082 509.05 757.355 492.237 770.961 472.023ZM711.97 262.494C712.359 255.205 712.65 253.747 714.886 250.832 719.745 244.418 719.453 244.515 763.186 244.418 816.832 244.418 834.908 243.057 870.089 236.449 888.262 233.047 891.177 233.144 895.648 236.837 900.216 240.725 901.479 244.418 901.479 253.164 901.479 262.883 899.535 262.3 920.721 258.995 962.899 252.193 987.195 244.807 996.719 235.671 1001.09 231.298 1001.29 227.897 997.302 223.426 993.901 219.539 988.556 216.429 980.004 213.222 936.66 196.895 841.711 186.982 729.755 186.982 618.188 187.176 521.392 197.284 480.478 213.222 472.314 216.429 464.442 221.968 462.304 225.661 456.959 235.38 473.966 245.098 510.313 253.262 554.046 262.98 627.906 269.783 695.74 270.56L711.873 270.56 712.164 262.397ZM421.973 938.992C412.462 938.992 403.683 936.65 395.636 931.966 387.732 927.281 381.438 920.916 376.753 912.869 372.069 904.816 369.727 896.037 369.727 886.532L369.727 859.962C369.727 850.438 372.069 841.659 376.753 833.625 381.438 825.591 387.729 819.222 395.626 814.519 403.66 809.834 412.439 807.492 421.963 807.492 429.284 807.492 436.314 809.015 443.052 812.06 449.726 814.975 455.492 819.154 460.351 824.597 461.388 825.633 461.906 826.8 461.906 828.095 461.906 829.715 461.226 831.173 459.865 832.469L450.438 841.895C449.402 842.932 448.203 843.45 446.842 843.45 445.482 843.45 444.218 842.77 443.052 841.41 437.351 835.708 430.256 832.857 421.769 832.857 414.577 832.857 408.422 835.417 403.304 840.535 398.315 845.459 395.821 851.517 395.821 858.708L395.821 887.475C395.821 894.602 398.315 900.724 403.304 905.843 408.422 910.831 414.545 913.326 421.672 913.326 430.159 913.326 437.254 910.475 442.955 904.773 444.121 903.413 445.352 902.733 446.648 902.733 447.944 902.733 449.11 903.251 450.147 904.288L459.574 913.714C460.869 915.01 461.517 916.468 461.517 918.088 461.517 919.383 460.999 920.55 459.962 921.586 455.103 926.964 449.304 931.208 442.566 934.317 435.828 937.233 428.799 938.691 421.477 938.691ZM531.402 938.992C523.057 938.992 515.519 937.016 508.788 933.064 502.205 929.112 497.009 923.624 493.199 916.601 489.377 909.578 487.465 901.673 487.465 892.888L487.465 814.946C487.465 813.631 487.886 812.536 488.729 811.661 489.571 810.787 490.672 810.346 492.033 810.34L509.137 810.34C510.433 810.34 511.535 810.78 512.442 811.661 513.349 812.543 513.77 813.644 513.705 814.966L513.705 889.603C513.705 897.358 515.681 903.358 519.633 907.602 523.585 911.696 529.125 913.744 536.252 913.744 544.869 913.744 551.672 910.964 556.66 905.405 561.779 899.704 564.338 891.945 564.338 882.13L564.338 814.878C564.338 813.518 564.759 812.416 565.601 811.574 566.444 810.732 567.545 810.278 568.906 810.214L586.01 810.214C587.306 810.214 588.407 810.635 589.314 811.477 590.221 812.319 590.642 813.42 590.578 814.781L590.578 931.402C590.578 932.698 590.124 933.799 589.217 934.706 588.31 935.613 587.208 936.034 585.913 935.97L568.808 935.97C567.448 935.97 566.346 935.516 565.504 934.609 564.662 933.702 564.208 932.601 564.143 931.305L564.143 921.003C560.062 926.575 555.138 930.948 549.372 934.123 543.8 937.168 537.645 938.691 530.907 938.691ZM630.238 978.546C628.923 978.546 627.822 978.105 626.934 977.224 626.047 976.343 625.612 975.248 625.632 973.939L625.632 814.985C625.632 813.67 626.069 812.575 626.944 811.7 627.818 810.826 628.92 810.385 630.248 810.379L644.534 810.379C645.895 810.379 646.996 810.819 647.838 811.7 648.681 812.582 649.134 813.683 649.199 815.005L649.199 824.869C653.022 819.167 657.719 814.849 663.291 811.914 668.992 808.999 675.082 807.541 681.561 807.541 690.178 807.541 698.244 809.873 705.76 814.538 713.405 819.086 719.431 825.241 723.836 833.003 728.372 840.752 730.639 849.09 730.639 858.018L730.639 888.534C730.639 897.462 728.469 905.807 724.128 913.569 719.787 921.33 713.859 927.55 706.343 932.228 698.892 936.763 690.697 939.031 681.756 939.031 676.378 939.031 671.13 937.929 666.012 935.727 661.075 933.394 656.54 930.106 652.406 925.862L652.406 973.871C652.406 975.167 651.985 976.269 651.143 977.176 650.3 978.083 649.199 978.504 647.838 978.439L630.637 978.439ZM678.102 913.782C685.274 913.782 691.348 911.294 696.323 906.319 701.442 901.2 704.001 895.052 704.001 887.873L704.001 858.679C704.001 851.507 701.442 845.433 696.323 840.457 691.348 835.339 685.274 832.78 678.102 832.78 670.929 832.78 664.781 835.339 659.656 840.457 654.538 845.446 651.978 851.536 651.978 858.728L651.978 887.98C651.978 895.172 654.538 901.327 659.656 906.445 664.774 911.434 670.923 913.928 678.102 913.928ZM764.935 978.546C763.62 978.546 762.519 978.105 761.631 977.224 760.744 976.343 760.309 975.248 760.329 973.939L760.329 814.985C760.329 813.67 760.766 812.575 761.641 811.7 762.516 810.826 763.617 810.385 764.945 810.379L779.231 810.379C780.592 810.379 781.693 810.819 782.535 811.7 783.378 812.582 783.831 813.683 783.896 815.005L783.896 824.869C787.719 819.167 792.416 814.849 797.988 811.914 803.689 808.999 809.779 807.541 816.258 807.541 824.875 807.541 832.942 809.873 840.457 814.538 848.102 819.086 854.128 825.241 858.533 833.003 863.069 840.752 865.336 849.09 865.336 858.018L865.336 888.534C865.336 897.462 863.166 905.807 858.825 913.569 854.484 921.33 848.556 927.55 841.04 932.228 833.589 936.763 825.394 939.031 816.453 939.031 811.075 939.031 805.827 937.929 800.709 935.727 795.772 933.394 791.237 930.106 787.103 925.862L787.103 973.871C787.103 975.167 786.682 976.269 785.84 977.176 784.997 978.083 783.896 978.504 782.535 978.439L765.334 978.439ZM812.799 913.782C819.971 913.782 826.045 911.294 831.021 906.319 836.139 901.2 838.698 895.052 838.698 887.873L838.698 858.679C838.698 851.507 836.139 845.433 831.021 840.457 826.045 835.339 819.971 832.78 812.799 832.78 805.626 832.78 799.478 835.339 794.353 840.457 789.235 845.446 786.675 851.536 786.675 858.728L786.675 887.98C786.675 895.172 789.235 901.327 794.353 906.445 799.471 911.434 805.62 913.928 812.799 913.928ZM943.851 936.174C934.34 936.174 925.561 933.831 917.514 929.147 909.61 924.463 903.316 918.097 898.631 910.051 893.947 901.997 891.605 893.218 891.605 883.714L891.605 860.001C891.605 850.477 893.944 841.698 898.622 833.664 903.3 825.63 909.594 819.258 917.505 814.548 925.538 809.864 934.317 807.521 943.841 807.521 953.365 807.521 962.047 809.864 969.887 814.548 977.921 819.232 984.27 825.601 988.935 833.654 993.6 841.753 995.932 850.532 995.932 859.991L995.932 874.763C995.932 877.419 994.96 879.687 993.017 881.566 991.267 883.315 989.064 884.19 986.408 884.19L917.699 884.19 917.699 885.356C917.699 892.548 920.161 898.703 925.085 903.821 930.203 908.81 936.358 911.304 943.55 911.304L978.439 911.304C979.735 911.304 980.836 911.758 981.743 912.665 982.65 913.572 983.071 914.673 983.007 915.969L983.007 931.81C983.007 933.171 982.553 934.272 981.646 935.114 980.739 935.957 979.644 936.41 978.361 936.475L943.657 936.475ZM969.76 860.428 969.76 858.456C969.76 851.283 967.201 845.209 962.083 840.234 957.094 835.115 951.017 832.556 943.851 832.556 936.685 832.556 930.537 835.115 925.406 840.234 920.43 845.209 917.942 851.283 917.942 858.456L917.942 860.428 969.741 860.428ZM1022.47 936.174C1021.16 936.174 1020.06 935.733 1019.17 934.852 1018.28 933.971 1017.85 932.876 1017.87 931.567L1017.87 915.318C1017.87 914.003 1018.3 912.901 1019.18 912.014 1020.05 911.126 1021.15 910.692 1022.48 910.711L1039.2 910.711 1039.2 835.199 1020.34 835.199C1019.05 835.199 1017.95 834.756 1017.04 833.868 1016.13 832.98 1015.71 831.879 1015.78 830.564L1015.78 814.985C1015.78 813.67 1016.23 812.569 1017.14 811.681 1018.04 810.793 1019.15 810.359 1020.44 810.379L1054.46 810.379C1057.11 810.379 1059.32 811.331 1061.06 813.236 1063.01 814.985 1063.98 817.178 1063.98 819.815L1063.98 827.716 1075.84 818.289C1080.24 814.771 1084.07 812.355 1087.3 811.04 1090.54 809.575 1094.37 808.843 1098.77 808.843L1105.58 808.843C1106.94 808.843 1108.04 809.281 1108.88 810.155 1109.72 811.03 1110.18 812.131 1110.24 813.459L1110.24 830.35C1110.24 831.711 1109.82 832.812 1108.98 833.654 1108.13 834.497 1107.03 834.95 1105.67 835.015L1100.04 835.015C1096.21 835.015 1092.91 835.695 1090.12 837.056 1087.34 838.416 1083.09 841.364 1077.39 845.899L1065.34 855.618 1065.34 911.013 1087.09 911.013C1088.45 911.013 1089.55 911.466 1090.39 912.373 1091.24 913.28 1091.69 914.382 1091.76 915.678L1091.76 931.907C1091.76 933.268 1091.33 934.369 1090.47 935.212 1089.62 936.054 1088.52 936.507 1087.17 936.572L1023.12 936.572Z" transform="matrix(1 0 0 1.00037 1320 627.544)"/></g></g></g><rect x="1643" y="1385" width="839" height="222" fill="#FFFFFF"/><text font-family="DaddyTimeMono Nerd Font Mono,DaddyTimeMono Nerd Font Mono_MSFontService,sans-serif" font-weight="400" font-size="156" transform="matrix(1 0 0 1 1695.41 1548)">Log Blog</text></g></svg>